<svg width="250" height="250" viewBox="0 0 250 250" fill="none" xmlns="http://www.w3.org/2000/svg">
<path d="M250 125C250 194.036 194.036 250 125 250C55.9644 250 0 194.036 0 125C0 55.9644 55.9644 0 125 0C194.036 0 250 55.9644 250 125ZM24.836 125C24.836 180.319 69.6809 225.164 125 225.164C180.319 225.164 225.164 180.319 225.164 125C225.164 69.6809 180.319 24.836 125 24.836C69.6809 24.836 24.836 69.6809 24.836 125Z" fill="#D9D9D9"/>
<path d="M125 0C108.585 -1.9575e-07 92.3303 3.23322 77.1646 9.51506C61.9989 15.7969 48.219 25.0043 36.6116 36.6117C25.0043 48.219 15.7969 61.9989 9.51505 77.1646C3.23322 92.3303 -2.47863e-06 108.585 0 125L24.6126 125C24.6126 111.817 27.2092 98.763 32.2542 86.5834C37.2991 74.4039 44.6936 63.3373 54.0154 54.0154C63.3372 44.6936 74.4039 37.2991 86.5834 32.2542C98.763 27.2092 111.817 24.6126 125 24.6126L125 0Z" fill="#818181"/>
</svg>
